<svg xmlns="http://www.w3.org/2000/svg" width="400" height="400" viewBox="0 0 400 400" version="1.1"><path d="M 239 64.614 C 237.075 65.458, 233.700 66.818, 231.500 67.636 L 227.500 69.124 214.391 69.003 L 201.281 68.883 192.391 70.513 C 176.077 73.504, 158.127 82.311, 147.796 92.393 C 140.286 99.721, 132.649 115.652, 130.838 127.767 L 129.752 135.033 131.377 143.915 C 133.497 155.503, 137.667 165.563, 144.555 175.706 C 150.454 184.393, 162.213 196.177, 170.792 202 C 173.628 203.925, 175.960 205.992, 175.974 206.593 C 176.022 208.599, 160.500 238.479, 155.519 245.971 C 149.538 254.968, 133.584 271, 130.612 271 C 130.298 271, 129.111 269.178, 127.975 266.951 C 125.881 262.847, 122.730 260.815, 120 261.808 C 117.505 262.716, 117.031 264.207, 117.015 271.193 L 117 277.887 115.204 279.193 C 112.223 281.362, 109.295 287.213, 108.640 292.306 C 107.788 298.941, 109.569 310.322, 112.329 315.871 L 114.631 320.500 118.371 321.742 L 122.112 322.985 126.306 322.017 C 128.613 321.485, 131.701 321.038, 133.168 321.024 L 135.837 321 138.149 324.750 C 141.386 329.999, 143.970 332.819, 147.605 335.065 L 150.736 337 155.365 337 L 159.994 337 163.754 333.604 L 167.513 330.207 184.584 330.745 L 201.656 331.282 207.078 330.059 C 230.830 324.699, 242.535 317.596, 254.137 301.500 C 260.739 292.342, 264.321 282.693, 265.850 269.950 L 266.757 262.400 265.922 253.950 C 265.056 245.185, 263.377 238.190, 260.592 231.745 C 255.416 219.768, 241.470 204.060, 228.794 195.929 L 221.013 190.937 223.286 187.219 C 224.537 185.173, 226.105 182.600, 226.772 181.500 C 227.439 180.400, 229.398 176.806, 231.126 173.514 C 232.853 170.222, 235.901 164.822, 237.898 161.514 C 239.895 158.206, 242.070 154.600, 242.732 153.500 C 243.393 152.400, 245.811 148.183, 248.104 144.129 C 256.632 129.053, 263.240 124.365, 279.118 122.123 C 282.757 121.609, 287.140 120.462, 288.858 119.574 C 292.770 117.550, 295.590 112.129, 296.495 104.890 L 297.193 99.301 295.621 93.166 C 294.757 89.792, 292.887 84.737, 291.466 81.933 L 288.883 76.836 284.287 74.803 L 279.690 72.769 274.910 72.769 C 272.281 72.769, 267.895 73.305, 265.163 73.961 L 260.196 75.153 257.055 73.528 C 255.327 72.635, 253.452 70.689, 252.887 69.204 C 252.323 67.719, 251.147 65.715, 250.275 64.752 L 248.690 63 245.595 63.039 C 243.893 63.061, 240.925 63.769, 239 64.614 M 240.174 66.833 C 238.523 67.750, 235.446 69.465, 233.336 70.644 C 228.829 73.162, 227.117 75.006, 223.982 80.718 L 221.668 84.936 222.982 93.386 C 223.705 98.033, 224.048 104.247, 223.744 107.193 L 223.191 112.550 215.967 128.525 C 211.994 137.311, 205.620 151.025, 201.802 159 C 197.985 166.975, 194.780 173.885, 194.681 174.356 C 194.581 174.826, 199.179 178.098, 204.898 181.626 L 215.296 188.041 217.025 187.492 C 219.181 186.808, 224.436 178.909, 229.495 168.750 C 231.618 164.488, 233.725 161, 234.177 161 C 234.630 161, 235 160.531, 235 159.958 C 235 158.862, 235.191 158.587, 239.847 153 C 241.451 151.075, 243.994 147.250, 245.498 144.500 C 250.863 134.689, 254.174 130.099, 258.357 126.671 C 262.996 122.869, 271.944 118.770, 280.429 116.561 C 288.124 114.556, 289.537 113.589, 291.903 108.701 L 294 104.369 294 98.773 L 294 93.178 291.887 87.656 C 289.268 80.812, 287.069 78.389, 282.275 77.065 L 278.536 76.033 270.787 77.603 L 263.038 79.173 258.033 77.511 L 253.028 75.849 251.014 73.020 C 249.906 71.464, 249 69.517, 249 68.693 C 249 67.870, 247.690 66.739, 246.089 66.181 L 243.177 65.166 240.174 66.833 M 189.500 75.538 L 185.500 76.921 189 76.355 C 190.925 76.044, 192.928 75.387, 193.450 74.895 C 194.618 73.795, 194.466 73.819, 189.500 75.538 M 195.141 77.022 C 190.260 79.237, 186.830 79.515, 183.879 77.935 C 182.784 77.349, 181.352 77.050, 180.695 77.270 C 180.038 77.490, 180.773 78.338, 182.328 79.154 L 185.156 80.637 191.828 79.750 C 195.498 79.263, 198.650 78.444, 198.833 77.932 C 199.017 77.419, 200.029 77, 201.083 77 C 202.137 77, 203 76.550, 203 76 C 203 74.451, 199.927 74.850, 195.141 77.022 M 173 80 L 171.500 80.969 175 80.969 L 178.500 80.969 177 80 C 176.175 79.467, 175.275 79.031, 175 79.031 C 174.725 79.031, 173.825 79.467, 173 80 M 164.911 83.282 C 164.037 83.952, 163.064 85.625, 162.749 87 C 162.435 88.375, 161.927 90.569, 161.622 91.874 C 160.645 96.053, 154.758 104, 152.639 104 C 152.082 104, 152.795 102.763, 154.223 101.250 C 157.244 98.052, 160.588 91.795, 161.571 87.500 L 162.258 84.500 161.252 85.500 C 160.699 86.050, 159.491 88.827, 158.569 91.671 L 156.892 96.841 152.705 101.671 C 150.401 104.327, 149.301 105.882, 150.259 105.128 C 151.216 104.373, 152 104.160, 152 104.655 C 152 106.461, 147.907 108.991, 143.969 109.621 L 139.931 110.267 141.362 111.883 C 142.150 112.772, 142.971 114.400, 143.189 115.500 L 143.584 117.500 146.270 113.305 C 147.747 110.997, 151.778 106.785, 155.228 103.943 C 162.192 98.207, 165 94.053, 165 89.488 C 165 87.814, 165.701 85.445, 166.557 84.223 C 168.249 81.806, 167.440 81.343, 164.911 83.282 M 189.500 84.100 C 183.423 85.465, 173.172 90.895, 169.233 94.834 C 167.298 96.769, 164.366 101.310, 162.716 104.926 L 159.717 111.500 158.521 119.500 L 157.324 127.500 158.162 129.815 C 158.623 131.088, 159 133.078, 159 134.236 C 159 138.241, 165.058 148.755, 170.768 154.660 C 175.734 159.796, 184.596 167.648, 190.228 171.903 L 191.956 173.208 195.351 165.854 C 197.219 161.809, 200.425 154.900, 202.475 150.500 C 204.525 146.100, 207.318 140.025, 208.681 137 C 210.044 133.975, 213.261 127.225, 215.830 122 L 220.500 112.500 220.289 104 C 220.173 99.325, 219.457 93.504, 218.697 91.064 L 217.317 86.627 209.908 84.830 C 201.926 82.894, 195.837 82.676, 189.500 84.100 M 156 89.440 C 156 90.232, 154.691 93.403, 153.091 96.487 C 151.491 99.571, 150.851 101.538, 151.669 100.860 C 153.284 99.519, 158 90.710, 158 89.033 C 158 88.465, 157.550 88, 157 88 C 156.450 88, 156 88.648, 156 89.440 M 152.304 91.250 C 151.279 92.612, 148.958 100, 149.555 100 C 149.757 100, 150.999 97.750, 152.315 95 C 154.525 90.383, 154.519 88.307, 152.304 91.250 M 147.162 96.543 C 145.767 99.605, 145.735 100, 146.883 100 C 147.676 100, 149.184 94.868, 148.574 94.246 C 148.437 94.106, 147.802 95.140, 147.162 96.543 M 142 104 C 142 104.550, 142.702 105, 143.559 105 C 144.416 105, 144.840 104.550, 144.500 104 C 144.160 103.450, 143.459 103, 142.941 103 C 142.423 103, 142 103.450, 142 104 M 140.330 107.276 C 140.038 107.747, 140.038 108.371, 140.328 108.662 C 141.097 109.431, 146.873 108.015, 147.570 106.886 L 148.164 105.926 144.512 106.172 C 142.503 106.308, 140.621 106.804, 140.330 107.276 M 150.323 110.250 C 148.068 112.755, 146.650 115, 147.322 115 C 147.564 115, 148.964 113.425, 150.432 111.500 C 153.444 107.552, 153.383 106.851, 150.323 110.250 M 138.557 113.418 C 140.652 114.950, 141.601 114.782, 140.541 113.067 C 140.179 112.480, 139.148 112, 138.250 112 L 136.618 112 138.557 113.418 M 153.405 116.146 L 151.500 118.291 153.750 117.110 C 154.988 116.461, 156 115.495, 156 114.965 C 156 113.544, 155.521 113.762, 153.405 116.146 M 137 117.059 C 137 118.191, 137.450 118.840, 138 118.500 C 138.550 118.160, 139 117.234, 139 116.441 C 139 115.648, 138.550 115, 138 115 C 137.450 115, 137 115.927, 137 117.059 M 139.616 118.305 C 138.722 121.639, 138.846 122, 140.883 122 C 141.919 122, 142.984 121.170, 143.249 120.157 L 143.731 118.313 141.968 117.212 L 140.204 116.111 139.616 118.305 M 135.252 121.500 C 135.263 123.700, 135.468 124.482, 135.707 123.238 C 135.946 121.994, 135.937 120.194, 135.687 119.238 C 135.437 118.282, 135.241 119.300, 135.252 121.500 M 154.325 118.658 C 154.687 119.020, 154.432 120.032, 153.759 120.908 L 152.534 122.500 154.767 120.595 C 157.440 118.314, 157.509 118, 155.333 118 C 154.417 118, 153.963 118.296, 154.325 118.658 M 145.252 122.500 C 145.263 124.700, 145.468 125.482, 145.707 124.238 C 145.946 122.994, 145.937 121.194, 145.687 120.238 C 145.437 119.282, 145.241 120.300, 145.252 122.500 M 134.005 127.514 C 135.749 132.101, 138.858 137.637, 140.416 138.930 C 141.275 139.643, 141.718 140.647, 141.400 141.162 L 140.822 142.097 139.161 140.816 L 137.500 139.534 139.250 141.596 C 141.734 144.522, 141.420 145.664, 138.750 143.412 L 136.500 141.514 138.856 144.185 C 141.249 146.897, 143.667 147.061, 143.667 144.513 C 143.667 143.742, 143.337 143.199, 142.933 143.306 C 142.530 143.412, 142.200 143.050, 142.200 142.500 C 142.200 141.122, 143.126 141.485, 148.151 144.827 C 150.543 146.418, 153.775 148.026, 155.334 148.400 L 158.168 149.080 157.525 148.040 C 157.171 147.468, 156.121 146.993, 155.191 146.985 L 153.500 146.969 154.824 146.130 L 156.148 145.291 154.502 143.645 C 152.384 141.527, 151.344 141.505, 153.096 143.615 L 154.436 145.231 152.551 144.865 C 149.861 144.344, 149.405 141.968, 151.871 141.324 L 153.952 140.779 152.860 138.738 L 151.767 136.697 153.384 137.317 C 155.716 138.212, 155.372 137.269, 152.879 135.935 L 150.759 134.800 151.438 135.900 C 152.317 137.321, 150.754 137.300, 147.566 135.848 C 146.176 135.215, 144.764 133.831, 144.428 132.773 C 144.092 131.715, 143.573 131.094, 143.273 131.393 C 142.974 131.693, 143.475 133.077, 144.388 134.469 C 145.300 135.861, 145.608 137, 145.073 137 C 144.537 137, 143.641 136.213, 143.080 135.250 C 142.519 134.287, 142.047 134.030, 142.030 134.679 C 142.014 135.327, 142.740 136.598, 143.645 137.502 L 145.291 139.148 146.145 137.824 L 147 136.500 147.985 138 C 148.526 138.825, 148.963 140.400, 148.954 141.500 L 148.939 143.500 147.920 141.750 C 147.359 140.787, 146.280 140, 145.522 140 C 143.157 140, 141.001 136.995, 140.985 133.679 L 140.969 130.500 140.124 131.834 L 139.278 133.168 138.636 131.494 C 138.283 130.573, 138.215 129.461, 138.486 129.023 C 139.039 128.128, 137.357 126.615, 134.793 125.703 L 133.086 125.096 134.005 127.514 M 143 125.684 C 143 126.318, 142.733 127.661, 142.406 128.668 L 141.811 130.500 142.756 129.183 L 143.701 127.865 144.942 130.861 C 145.625 132.508, 146.794 134.091, 147.541 134.377 L 148.898 134.898 148.262 133.199 L 147.626 131.500 149.563 133 L 151.500 134.500 150.154 132.782 C 149.414 131.837, 148.362 131.162, 147.816 131.282 C 147.271 131.402, 145.964 129.932, 144.912 128.016 C 143.860 126.099, 143 125.050, 143 125.684 M 151.648 126.717 C 151.960 127.937, 152.843 129.454, 153.608 130.090 C 155.628 131.766, 155.273 129.910, 153.018 127 L 151.080 124.500 151.648 126.717 M 150 130 C 150.589 131.100, 151.574 132, 152.190 132 C 152.806 132, 152.495 131.100, 151.500 130 C 150.505 128.900, 149.519 128, 149.310 128 C 149.101 128, 149.411 128.900, 150 130 M 133.970 137.944 C 134.543 139.014, 135.505 140.194, 136.109 140.567 C 136.713 140.941, 136.434 140.066, 135.489 138.623 C 133.487 135.568, 132.451 135.105, 133.970 137.944 M 135.703 144.404 C 136.691 145.727, 138.400 147.356, 139.500 148.025 C 140.600 148.694, 139.949 147.612, 138.054 145.621 C 134.077 141.442, 133.120 140.947, 135.703 144.404 M 134 150 C 134 150.550, 134.455 151, 135.011 151 C 135.567 151, 138.021 151.940, 140.464 153.088 C 142.907 154.236, 145.339 154.908, 145.869 154.581 C 147.391 153.640, 153.903 161.965, 154.615 165.762 L 155.260 169.198 155.991 168.014 L 156.723 166.831 157.268 168.915 L 157.813 171 159.656 170.884 L 161.500 170.768 159.750 170.311 C 158.787 170.059, 158 169.185, 158 168.368 C 158 167.551, 158.450 167.160, 159 167.500 C 159.550 167.840, 160 167.390, 160 166.500 C 160 163.215, 147.453 151.881, 145.726 153.607 C 145.436 153.897, 142.919 152.979, 140.133 151.567 C 134.470 148.698, 134 148.578, 134 150 M 146.468 151.568 C 149.201 152.922, 152.913 155.462, 154.718 157.212 C 156.523 158.961, 158 159.938, 158 159.383 C 158 157.534, 152.560 153.154, 147.667 151.064 C 141.089 148.255, 140.383 148.551, 146.468 151.568 M 152.441 151.445 C 153.509 152.300, 154.821 153, 155.358 153 C 156.628 153, 156.061 152.538, 153 151.080 L 150.500 149.890 152.441 151.445 M 156 150.312 C 156 150.484, 157.350 151.622, 159 152.842 C 162.503 155.432, 162.964 154.976, 159.811 152.039 C 157.889 150.248, 156 149.392, 156 150.312 M 141.230 157.669 L 139.959 158.180 142.415 160.112 C 143.765 161.174, 145.447 161.921, 146.152 161.772 C 146.857 161.622, 148.193 162.990, 149.120 164.811 L 150.807 168.122 151.524 166.961 C 152.533 165.328, 148.694 160.522, 146.279 160.393 C 143.606 160.251, 141.832 159.081, 142.543 157.931 C 143.167 156.920, 143.116 156.910, 141.230 157.669 M 164.986 162.050 C 164.979 165.048, 164.705 168.498, 164.378 169.717 C 163.642 172.462, 160.762 173.478, 157.962 171.980 L 155.849 170.849 156.959 172.924 C 157.909 174.698, 160.403 175.568, 163.250 175.118 C 163.662 175.053, 164 175.430, 164 175.955 C 164 178.665, 152.075 178.283, 148.970 175.473 C 147.886 174.492, 147 174.198, 147 174.819 C 147 176.554, 152.492 179, 156.385 179 C 158.302 179, 160.912 179.385, 162.185 179.855 C 163.458 180.325, 166.474 181.015, 168.886 181.388 L 173.272 182.067 172.741 178.105 L 172.210 174.143 173.605 174.679 C 174.372 174.973, 175 175.616, 175 176.107 C 175 178.115, 176.801 176.819, 177.246 174.491 L 177.726 171.983 176.449 173.043 L 175.171 174.103 173.337 171.671 L 171.502 169.239 170.264 171.870 L 169.025 174.500 169.619 171.125 L 170.214 167.750 169.013 168.492 L 167.812 169.234 168.183 173.117 C 168.543 176.902, 167.468 178.656, 166.823 175.334 C 166.269 172.477, 167.160 164.981, 167.994 165.496 C 169.137 166.202, 167.362 158.962, 166.078 157.678 L 165 156.600 164.986 162.050 M 147.141 165.363 C 147.847 166.938, 148.606 167.682, 148.828 167.015 C 149.050 166.349, 148.473 165.060, 147.545 164.152 L 145.858 162.500 147.141 165.363 M 144.967 165.852 C 145.634 167.146, 145.945 169.103, 145.658 170.201 C 145.370 171.299, 145.401 171.932, 145.726 171.608 C 146.050 171.283, 146.964 171.555, 147.757 172.213 L 149.198 173.409 147.547 169.454 C 146.639 167.280, 145.414 165.050, 144.825 164.500 L 143.755 163.500 144.967 165.852 M 152.596 167.799 L 151.834 170.098 153.440 172.549 C 155.297 175.384, 156.554 175.815, 155.483 173.250 C 155.081 172.287, 154.439 170.150, 154.055 168.500 L 153.357 165.500 152.596 167.799 M 173.015 168.191 C 173.007 169.121, 173.450 170.160, 174 170.500 C 175.266 171.282, 175.266 169.958, 174 168 L 173.031 166.500 173.015 168.191 M 150 171.878 C 150 172.360, 150.749 173.373, 151.664 174.128 L 153.327 175.500 152.129 173.250 C 150.889 170.923, 150 170.350, 150 171.878 M 180.015 172.821 C 180.007 173.548, 179.325 174.818, 178.500 175.643 C 177.675 176.468, 177.010 177.673, 177.022 178.321 C 177.034 178.970, 177.891 178.398, 178.927 177.051 L 180.809 174.602 181.268 177.051 L 181.728 179.500 181.849 177 C 181.915 175.625, 181.533 173.825, 181 173 L 180.031 171.500 180.015 172.821 M 184.170 174.500 C 184.154 175.600, 184.527 177.400, 185 178.500 L 185.859 180.500 185.830 179 C 185.814 178.175, 185.440 176.375, 185 175 L 184.199 172.500 184.170 174.500 M 190.534 181.569 L 188.849 185.121 190.674 187.664 C 191.679 189.063, 193.625 192.296, 195 194.849 L 197.500 199.490 201 201.141 C 202.925 202.049, 204.512 203.402, 204.526 204.146 C 204.541 204.891, 204.905 206.063, 205.335 206.750 C 206.530 208.658, 204.902 208.239, 203.392 206.250 L 202.064 204.500 202.032 206.875 L 202 209.250 205 208.650 C 208.525 207.945, 208.975 209.224, 205.750 210.780 L 203.500 211.865 205.317 211.932 C 207.607 212.018, 214 216.826, 214 218.464 C 214 219.138, 214.869 220.476, 215.930 221.437 L 217.861 223.184 217.286 220.842 C 216.970 219.554, 216.330 218.009, 215.864 217.408 C 215.398 216.807, 215.265 216.069, 215.567 215.767 C 216.625 214.709, 219.939 216.233, 220.513 218.042 L 221.093 219.867 223.046 219.491 L 225 219.115 225 220.866 C 225 221.830, 225.661 223.491, 226.468 224.559 L 227.936 226.500 228.047 223.500 C 228.163 220.365, 228.428 220.695, 229.421 225.208 C 229.749 226.697, 231.138 229.125, 232.508 230.604 L 235 233.292 235 236.705 L 235 240.118 236.107 239.434 L 237.214 238.750 236.565 240.795 C 235.348 244.628, 234.616 250.861, 234.899 254.973 L 235 256.445 236.573 254.199 L 238.146 251.954 237.823 243.602 L 237.500 235.249 238.693 235.710 L 239.886 236.170 238.838 232.335 C 237.486 227.382, 236.551 226.458, 237.489 231 L 238.211 234.500 237.188 233.500 C 236.626 232.950, 235.934 230.981, 235.650 229.125 C 235.048 225.180, 231.224 220.838, 225.250 217.316 C 222.912 215.937, 221.248 214.408, 221.552 213.916 C 221.855 213.425, 221.426 213.283, 220.597 213.601 C 218.973 214.224, 211 210.200, 211 208.757 C 211 208.276, 211.520 208.203, 212.155 208.595 L 213.309 209.309 212.585 208.138 C 212.187 207.494, 211.534 207.170, 211.133 207.418 C 210.140 208.032, 209.123 207.206, 204.716 202.210 C 202.635 199.850, 201.180 197.518, 201.482 197.029 C 201.785 196.539, 201.506 195.813, 200.862 195.415 L 199.691 194.691 200.500 196 L 201.309 197.309 200.086 196.553 C 199.414 196.138, 199.100 195.183, 199.388 194.431 C 199.677 193.679, 199.413 192.755, 198.802 192.378 L 197.691 191.691 198.537 193.095 L 199.384 194.500 197.709 193.142 C 195.861 191.643, 194.014 185.991, 194.006 181.809 C 193.997 177.717, 192.414 177.607, 190.534 181.569 M 157.815 181.215 C 158.322 181.722, 161.242 182.477, 164.304 182.892 C 167.365 183.308, 170.596 184.250, 171.483 184.986 L 173.095 186.323 171.797 187.146 L 170.500 187.969 171.750 187.985 C 172.438 187.993, 173.266 187.970, 173.591 187.933 C 173.916 187.897, 174.838 188.684, 175.639 189.683 L 177.097 191.500 175.475 188.157 C 174.582 186.318, 174.094 184.573, 174.389 184.278 C 174.684 183.983, 175.456 184.906, 176.104 186.330 L 177.284 188.918 178.892 188.066 L 180.500 187.213 181.896 188.720 L 183.291 190.227 181.146 189.546 L 179 188.865 179 189.933 C 179 190.520, 179.338 190.947, 179.750 190.882 C 180.162 190.816, 181.603 190.816, 182.950 190.882 L 185.400 191 184.200 192.200 C 182.589 193.811, 182.675 195.339, 184.341 194.700 C 185.078 194.417, 186.316 194.587, 187.091 195.077 L 188.500 195.969 186.809 195.985 C 185.879 195.993, 184.871 196.399, 184.570 196.887 C 184.268 197.375, 184.804 197.712, 185.761 197.637 C 186.717 197.562, 187.388 198.063, 187.250 198.750 C 187.113 199.438, 187.675 200, 188.500 200 C 189.325 200, 190 200.433, 190 200.962 C 190 201.491, 191.985 203.966, 194.411 206.462 L 198.822 211 201.161 210.932 L 203.500 210.865 201.500 210.016 C 200.400 209.549, 198.713 208.919, 197.750 208.615 C 196.787 208.311, 196 207.164, 196 206.065 C 196 204.967, 195.228 202.449, 194.285 200.471 L 192.570 196.875 191.855 198.688 L 191.141 200.500 191.070 198.118 C 191.032 196.808, 190.007 194.129, 188.793 192.164 L 186.585 188.593 186.691 185.046 L 186.797 181.500 186.331 184.267 C 185.755 187.678, 184.006 186.876, 183.985 183.191 L 183.969 180.500 183.214 181.687 C 182.799 182.341, 181.168 183.366, 179.590 183.966 L 176.720 185.057 174.688 183.278 C 173.571 182.300, 173.015 182.111, 173.453 182.857 L 174.250 184.214 171.875 183.449 C 167.213 181.947, 156.910 180.310, 157.815 181.215 M 153 181.500 C 153 182.367, 156.756 185.799, 159.045 187.024 L 161.241 188.200 160.465 186.944 L 159.689 185.688 165.595 186.284 L 171.500 186.880 169.559 185.440 C 168.491 184.648, 166.410 184, 164.935 184 C 163.459 184, 160.338 183.325, 158 182.500 C 153.293 180.839, 153 180.781, 153 181.500 M 164 188.015 L 161.500 188.638 166.291 189.201 C 168.925 189.510, 172.075 190.601, 173.291 191.625 L 175.500 193.486 173.171 190.844 C 170.602 187.931, 167.801 187.067, 164 188.015 M 161.559 191.095 C 161.866 191.593, 163.588 192, 165.385 192 L 168.651 192 170.698 194.250 C 171.824 195.488, 172.992 197.175, 173.294 198 L 173.842 199.500 173.921 197.896 C 173.964 197.014, 172.962 195.172, 171.694 193.804 L 169.388 191.315 165.194 190.753 L 161 190.190 161.559 191.095 M 191 192.500 C 192.292 193.875, 193.516 195, 193.721 195 C 194.552 195, 190.431 190.060, 189.576 190.031 C 189.067 190.014, 189.708 191.125, 191 192.500 M 209.587 195.182 C 210.639 196.657, 212.625 198.378, 214 199.008 C 215.375 199.638, 216.050 199.778, 215.500 199.319 C 214.950 198.860, 212.964 197.138, 211.087 195.492 L 207.675 192.500 209.587 195.182 M 217.441 196.247 C 217.674 198.036, 217.949 199.725, 218.051 200 C 218.153 200.275, 218.172 200.871, 218.094 201.324 C 218.015 201.778, 218.419 201.859, 218.992 201.505 C 219.564 201.151, 219.774 200.443, 219.457 199.931 C 218.379 198.186, 220.839 198.994, 223.673 201.315 C 225.228 202.589, 228.075 204.582, 230 205.745 C 234.221 208.296, 238.203 212.436, 240.341 216.500 L 241.920 219.500 241.960 217.700 C 241.982 216.711, 241.343 214.630, 240.540 213.077 C 239.737 211.524, 239.399 209.899, 239.790 209.466 C 240.180 209.034, 239.938 209.003, 239.250 209.399 C 238.563 209.794, 238 209.619, 238 209.010 C 238 208.401, 236.261 207.124, 234.136 206.172 C 229.448 204.074, 221.074 197.886, 221.031 196.491 C 221.014 195.935, 220.104 194.921, 219.008 194.237 L 217.016 192.993 217.441 196.247 M 194.035 196.615 C 193.975 198.522, 198.058 203.002, 199.823 202.965 L 201.500 202.929 199.110 201.604 C 197.796 200.876, 196.124 199.204, 195.396 197.890 C 194.667 196.575, 194.055 196.002, 194.035 196.615 M 208.918 200.363 C 210.249 202.003, 214 204.483, 214 203.723 C 214 203.532, 212.537 202.305, 210.750 200.997 L 207.500 198.618 208.918 200.363 M 184.589 201.856 C 184.298 202.326, 185.172 202.499, 186.530 202.239 C 187.889 201.979, 189 201.594, 189 201.383 C 189 200.610, 185.101 201.027, 184.589 201.856 M 198 206.031 C 198 207.114, 198.477 208, 199.059 208 C 199.641 208, 199.864 207.588, 199.553 207.085 C 199.242 206.582, 199.530 205.990, 200.193 205.769 L 201.399 205.367 199.699 204.715 L 198 204.063 198 206.031 M 219 204.463 C 219 204.736, 220.820 205.888, 223.045 207.023 C 228.476 209.794, 235.215 215.998, 234.582 217.646 C 234.302 218.378, 234.525 218.869, 235.080 218.738 C 236.473 218.409, 240.034 228.599, 240.290 233.646 C 240.405 235.926, 240.838 237.586, 241.250 237.337 C 242.625 236.503, 242.022 244.057, 240.474 247.050 C 239.635 248.672, 239.201 250, 239.510 250 C 241.323 250, 245.471 246.117, 246.636 243.328 L 248 240.064 248.006 231.782 L 248.012 223.500 249.438 220.767 C 250.222 219.264, 250.494 217.805, 250.041 217.526 C 248.459 216.548, 245.999 221.971, 245.872 226.715 L 245.743 231.500 244.758 225.750 C 244.216 222.588, 243.315 220, 242.755 220 L 241.737 220 242.394 224.250 C 242.755 226.588, 243.262 232.100, 243.520 236.500 L 243.988 244.500 242.166 235 C 239.965 223.530, 237.441 217.755, 232.407 212.669 C 229.072 209.300, 219 203.135, 219 204.463 M 217.437 205.898 C 217.743 206.393, 219.597 207.745, 221.557 208.901 C 223.517 210.057, 224.870 210.598, 224.563 210.102 C 224.257 209.607, 222.403 208.255, 220.443 207.099 C 218.483 205.943, 217.130 205.402, 217.437 205.898 M 227.976 206.683 C 229.338 207.682, 232.014 209.850, 233.922 211.500 C 235.831 213.150, 236.994 213.825, 236.507 213 C 235.504 211.299, 233.025 209.328, 228.565 206.683 L 225.500 204.866 227.976 206.683 M 174.557 215.250 C 172.461 219.787, 169.383 225.750, 167.715 228.500 C 166.048 231.250, 163.336 235.975, 161.688 239 C 157.172 247.293, 149.595 258.002, 143.404 264.843 C 138.539 270.219, 122.624 282, 120.227 282 C 118.910 282, 115.469 286.045, 113.422 290 L 111.609 293.500 111.603 302.500 L 111.596 311.500 112.758 313.609 L 113.919 315.717 118.710 317.085 C 121.344 317.837, 124.063 318.406, 124.750 318.351 C 125.438 318.295, 127.983 318.194, 130.406 318.125 L 134.813 318 134.467 316.250 C 134.276 315.288, 133.850 313.223, 133.519 311.661 C 133.188 310.100, 131.248 307.289, 129.209 305.416 C 125.074 301.618, 126.118 300.747, 130.615 304.241 C 135.242 307.836, 136.684 310.073, 139.163 317.499 L 141.500 324.498 145.280 328.279 L 149.061 332.061 154.280 331.389 L 159.500 330.718 163.542 327.030 L 167.584 323.342 172.195 322.181 L 176.805 321.020 179.486 317.835 L 182.166 314.649 181.551 312.075 C 177.747 296.138, 179.550 271.357, 185.631 256.023 C 189.355 246.633, 197.233 229.657, 200.441 224.111 L 201.823 221.722 194.661 216.596 C 186.955 211.081, 180.349 207, 179.126 207 C 178.709 207, 176.653 210.713, 174.557 215.250 M 216.425 208.879 C 216.724 209.363, 217.988 210.016, 219.234 210.330 L 221.500 210.901 219.559 209.450 C 217.409 207.844, 215.580 207.511, 216.425 208.879 M 193.500 211.682 C 194.050 212.148, 195.662 213.544, 197.083 214.783 L 199.667 217.035 199.667 215.623 C 199.667 214.847, 198.054 213.452, 196.083 212.523 C 194.113 211.594, 192.950 211.216, 193.500 211.682 M 203.083 213.365 C 203.313 213.565, 204.625 214.314, 206 215.028 L 208.500 216.327 207.128 214.664 C 206.373 213.749, 205.060 213, 204.211 213 C 203.362 213, 202.854 213.164, 203.083 213.365 M 202.424 215.916 C 204.369 218.066, 206 218.633, 206 217.161 C 206 216.699, 204.771 215.761, 203.269 215.077 L 200.539 213.833 202.424 215.916 M 229 216.313 C 229 216.485, 230.463 217.948, 232.250 219.563 L 235.500 222.500 232.563 219.250 C 229.825 216.221, 229 215.540, 229 216.313 M 202.226 218.574 C 203.176 219.568, 204.227 220.107, 204.562 219.771 C 204.897 219.436, 204.120 218.623, 202.836 217.964 L 200.500 216.766 202.226 218.574 M 222.636 223.507 C 222.299 224.385, 222.421 224.858, 222.907 224.558 C 223.393 224.257, 224.073 224.748, 224.419 225.649 C 224.764 226.549, 225.307 227.026, 225.626 226.708 C 225.944 226.390, 225.539 225.180, 224.726 224.020 L 223.249 221.910 222.636 223.507 M 219.136 225.054 L 219 227.608 222.750 231.054 L 226.500 234.500 223.333 231 C 221.591 229.075, 219.965 226.375, 219.719 225 L 219.272 222.500 219.136 225.054 M 199.579 232.303 C 193.115 244.162, 187.657 256.330, 184.913 265 L 182.539 272.500 182.520 286 C 182.509 293.425, 183.126 303.270, 183.892 307.877 L 185.284 316.254 195.010 315.785 L 204.736 315.317 212.887 311.492 L 221.038 307.667 225.332 303.076 C 227.694 300.552, 231.104 295.358, 232.910 291.535 L 236.194 284.584 236.166 277.341 C 236.132 268.735, 235.114 261.189, 233.885 260.429 C 233.398 260.128, 233 258.720, 233 257.301 C 233 253.036, 228.860 245.961, 222.500 239.357 C 216.061 232.672, 206.102 224, 204.862 224 C 204.446 224, 202.068 227.736, 199.579 232.303 M 254.070 227.083 C 254.109 228.412, 254.521 230.400, 254.986 231.500 L 255.832 233.500 255.551 229.719 C 255.240 225.531, 253.959 223.251, 254.070 227.083 M 227 227.755 C 227 228.305, 227.675 229.315, 228.500 230 L 230 231.245 230 230.245 C 230 229.695, 229.325 228.685, 228.500 228 L 227 226.755 227 227.755 M 252.673 232.500 C 252.991 235.800, 253.419 238.688, 253.625 238.917 C 254.353 239.726, 253.789 231.466, 252.948 229 L 252.096 226.500 252.673 232.500 M 221.648 233.717 C 221.960 234.937, 222.843 236.454, 223.608 237.090 C 225.628 238.766, 225.273 236.910, 223.018 234 L 221.080 231.500 221.648 233.717 M 227.168 239.051 C 227.753 240.729, 228.417 241.917, 228.644 241.690 C 229.139 241.195, 227.252 236, 226.577 236 C 226.317 236, 226.583 237.373, 227.168 239.051 M 253.299 242.384 L 251.202 248.077 252.601 246.916 C 254.594 245.262, 254.319 246.996, 252.040 250.454 L 250.093 253.407 251.133 254.660 C 251.704 255.349, 251.885 256.377, 251.534 256.945 L 250.896 257.977 252.489 257.366 L 254.082 256.755 253.791 258.127 C 253.631 258.882, 253.050 259.831, 252.500 260.235 L 251.500 260.969 253.050 260.985 C 253.903 260.993, 255.110 260.490, 255.733 259.867 C 256.356 259.244, 257.558 259, 258.405 259.325 L 259.944 259.916 259.722 267.362 C 259.600 271.457, 259.163 274.600, 258.750 274.345 C 258.038 273.906, 257.589 275.517, 257.913 277.344 C 257.995 277.808, 257.486 277.998, 256.781 277.766 C 256.077 277.534, 255.235 275.804, 254.910 273.922 C 254.047 268.908, 252.960 266.199, 251.604 265.678 C 250.492 265.252, 243.425 267.242, 242.394 268.272 C 241.332 269.335, 241.137 273.407, 242.078 274.892 L 243.095 276.500 242.441 274.125 L 241.786 271.750 243.063 272.539 L 244.340 273.328 243.681 271.612 L 243.023 269.896 244.011 270.507 C 244.555 270.843, 245 270.641, 245 270.059 C 245 268.250, 248.596 268.896, 250.551 271.057 L 252.412 273.113 252.813 279.400 L 253.213 285.687 251.488 289.094 C 248.866 294.273, 244.980 299.106, 243.950 298.469 C 243.444 298.156, 241.110 299.711, 238.765 301.925 C 233.460 306.931, 234.525 307.328, 239.997 302.384 C 242.199 300.395, 244 299.039, 244 299.370 C 244 300.733, 236.201 307.091, 232.162 309.020 L 227.825 311.093 224.917 310.634 C 223.318 310.382, 221.738 310.614, 221.407 311.150 C 221.076 311.686, 218.486 313.217, 215.653 314.552 C 212.819 315.888, 211.625 316.710, 213 316.379 C 214.375 316.048, 216.850 315.160, 218.500 314.405 C 220.150 313.650, 224.717 312.913, 228.648 312.766 C 232.580 312.620, 235.389 312.246, 234.891 311.937 C 234.393 311.627, 235.001 310.502, 236.243 309.437 L 238.500 307.500 243 307.813 L 247.500 308.126 246.250 306.863 C 245.563 306.168, 245 304.518, 245 303.197 L 245 300.793 251.363 293.147 C 254.863 288.941, 258.045 284.481, 258.435 283.235 C 258.825 281.990, 259.468 281.171, 259.864 281.416 C 260.260 281.661, 260.712 276.554, 260.867 270.066 L 261.150 258.271 259.511 257.643 C 258.610 257.297, 258.158 256.554, 258.506 255.991 C 258.854 255.428, 259.627 255.269, 260.224 255.638 L 261.309 256.309 260.595 255.155 C 260.203 254.520, 258.896 253.955, 257.691 253.900 L 255.500 253.801 258 253.088 L 260.500 252.376 257.595 251.630 L 254.690 250.884 253.860 252.192 C 252.664 254.078, 252.808 252.228, 254.035 249.934 L 255.070 248 257.668 248 C 259.097 248, 261.106 248.969, 262.133 250.153 L 264 252.306 263.900 249.903 C 263.845 248.581, 263.488 246.376, 263.106 245.003 L 262.411 242.506 260.456 242.491 C 259.380 242.483, 257.743 243.375, 256.818 244.473 C 254.568 247.146, 253.738 246.049, 255.086 242.183 C 257.096 236.417, 255.428 236.604, 253.299 242.384 M 249.825 241.326 L 249.248 244.152 250.218 243.182 C 250.751 242.649, 251.011 241.377, 250.794 240.356 L 250.401 238.500 249.825 241.326 M 243.702 251.368 C 239.139 256.331, 238.031 258.019, 238.031 260 L 238.031 261.500 238.877 260.165 C 239.343 259.430, 240.112 258.901, 240.587 258.990 C 241.062 259.078, 241.608 258.554, 241.801 257.825 L 242.152 256.500 241.091 258 C 240.508 258.825, 240.024 259.132, 240.015 258.683 C 239.990 257.319, 245.163 251, 246.306 251 C 246.893 251, 246.081 252.350, 244.500 254 C 242.919 255.650, 241.983 257, 242.419 257 C 243.768 257, 247.516 251.630, 247.182 250.175 L 246.866 248.799 247.922 249.452 L 248.977 250.104 248.382 248.552 C 248.054 247.698, 247.722 247.053, 247.643 247.118 C 247.564 247.183, 245.791 249.095, 243.702 251.368 M 240.844 251.255 C 238.046 253.621, 235.996 256.980, 236.006 259.184 C 236.010 259.908, 236.713 259.150, 237.569 257.500 C 238.426 255.850, 240.307 253.262, 241.750 251.750 C 244.922 248.426, 244.478 248.183, 240.844 251.255 M 245.105 256.534 C 240.885 261.339, 238.607 264.940, 239.329 265.663 C 239.660 265.993, 239.475 267.216, 238.919 268.381 C 237.527 271.301, 246.050 261.883, 248.394 257.912 L 250.288 254.704 248.974 255.516 L 247.660 256.328 248.299 254.664 C 249.244 252.202, 248.553 252.606, 245.105 256.534 M 243.620 260.418 C 240.202 264.590, 239.047 266.707, 240.771 265.641 C 241.792 265.010, 248.251 256, 247.683 256 C 247.440 256, 245.612 257.988, 243.620 260.418 M 262.232 272 C 262.232 273.925, 262.438 274.712, 262.689 273.750 C 262.941 272.788, 262.941 271.212, 262.689 270.250 C 262.438 269.288, 262.232 270.075, 262.232 272 M 246.597 272.652 C 247.505 276.432, 247.997 276.870, 248.015 273.917 L 248.031 271.500 249 273 C 249.533 273.825, 250.007 275.850, 250.052 277.500 L 250.135 280.500 251.236 278.214 L 252.337 275.929 250.358 273.277 C 249.269 271.819, 247.824 270.441, 247.146 270.215 L 245.913 269.804 246.597 272.652 M 256.195 273.500 C 256.215 275.150, 256.439 275.704, 256.693 274.731 C 256.947 273.758, 256.930 272.408, 256.656 271.731 C 256.382 271.054, 256.175 271.850, 256.195 273.500 M 238.954 273 C 238.499 274.318, 238.190 282, 238.592 282 C 238.843 282, 239.476 280.879, 239.996 279.510 L 240.943 277.020 240.035 274.760 C 239.535 273.517, 239.049 272.725, 238.954 273 M 244.314 274.750 C 243.972 275.712, 243.529 276.806, 243.329 277.181 C 243.130 277.555, 243.374 278.113, 243.872 278.421 C 244.369 278.728, 244.973 277.634, 245.215 275.990 C 245.703 272.665, 245.269 272.068, 244.314 274.750 M 244.696 282.100 C 243.710 284.375, 243.124 286.457, 243.393 286.726 C 244.004 287.338, 247.150 279.951, 246.768 278.803 C 246.614 278.341, 245.681 279.825, 244.696 282.100 M 241.946 282.750 C 241.393 284.262, 240.702 286.175, 240.411 287 L 239.882 288.500 240.958 287.433 C 242.101 286.299, 244.175 280, 243.405 280 C 243.155 280, 242.498 281.238, 241.946 282.750 M 249.009 283 L 248.859 285.500 248.175 283.773 L 247.490 282.046 244.628 287.512 C 241.961 292.605, 238.641 296.194, 231.435 301.772 L 228.500 304.043 231.687 302.529 C 233.439 301.696, 235.153 300.561, 235.496 300.007 C 235.838 299.453, 236.568 299, 237.118 299 C 237.668 299, 237.797 299.520, 237.405 300.155 L 236.691 301.309 237.862 300.585 C 238.506 300.187, 238.793 299.474, 238.500 299 C 238.207 298.526, 238.470 297.828, 239.084 297.448 C 239.697 297.069, 241.898 294.131, 243.974 290.920 C 246.049 287.708, 248.019 285.352, 248.350 285.683 C 249.204 286.537, 250.293 283.327, 249.673 281.783 C 249.390 281.077, 249.091 281.625, 249.009 283 M 239.667 282.750 C 238.322 284.984, 236.046 291.350, 236.896 290.500 C 238.069 289.327, 241.238 282, 240.572 282 C 240.323 282, 239.915 282.337, 239.667 282.750 M 248.906 288.748 C 248.331 290.260, 247.105 292.397, 246.180 293.498 L 244.500 295.500 246.686 293.653 C 247.888 292.637, 249.327 290.500, 249.884 288.903 C 251.171 285.211, 250.303 285.074, 248.906 288.748 M 241.490 289.016 C 241.144 289.575, 240.373 289.731, 239.776 289.362 L 238.691 288.691 239.382 289.809 L 240.073 290.927 235.815 295.185 L 231.557 299.443 234.923 297.471 C 237.725 295.830, 244.050 288, 242.574 288 C 242.323 288, 241.835 288.457, 241.490 289.016 M 256.141 290.637 L 254.858 293.500 256.545 291.848 C 257.473 290.940, 258.050 289.651, 257.828 288.985 C 257.606 288.318, 256.847 289.062, 256.141 290.637 M 247.413 300.492 L 245.780 302.985 246.580 304.742 L 247.381 306.500 247.779 303.500 C 247.998 301.850, 248.642 299.938, 249.211 299.250 C 249.780 298.563, 249.975 298, 249.645 298 C 249.316 298, 248.311 299.122, 247.413 300.492 M 229.762 314.707 C 231.006 314.946, 232.806 314.937, 233.762 314.687 C 234.718 314.437, 233.700 314.241, 231.500 314.252 C 229.300 314.263, 228.518 314.468, 229.762 314.707 M 228.786 315.948 C 224.543 316.304, 220.823 316.844, 220.518 317.148 C 219.581 318.085, 235.438 316.828, 236.450 315.885 C 236.972 315.398, 237.197 315.068, 236.950 315.151 C 236.703 315.234, 233.029 315.593, 228.786 315.948 M 198 319.906 L 195.500 320.613 197.750 321.213 C 200.304 321.894, 200.817 324, 198.429 324 L 196.857 324 198.424 325.567 L 199.991 327.134 202.745 326.717 L 205.500 326.300 202.750 326.150 C 199.778 325.988, 198.864 324.010, 201.750 323.985 L 203.500 323.969 202 322.909 L 200.500 321.848 201.756 321.338 C 202.447 321.058, 202.758 320.418, 202.447 319.915 C 201.819 318.898, 201.569 318.897, 198 319.906 M 194.269 326.693 C 195.242 326.947, 196.592 326.930, 197.269 326.656 C 197.946 326.382, 197.150 326.175, 195.500 326.195 C 193.850 326.215, 193.296 326.439, 194.269 326.693" stroke="none" fill="#0d0d0d" fill-rule="evenodd"/><path d="M -0 200.002 L -0 400.005 200.250 399.752 L 400.500 399.500 400.752 199.750 L 401.005 0 200.502 0 L 0 0 -0 200.002 M 0.490 200.500 C 0.490 310.500, 0.607 355.352, 0.750 300.170 C 0.893 244.989, 0.893 154.989, 0.750 100.170 C 0.607 45.352, 0.490 90.500, 0.490 200.500 M 239 64.614 C 237.075 65.458, 233.700 66.818, 231.500 67.636 L 227.500 69.124 214.391 69.003 L 201.281 68.883 192.391 70.513 C 176.077 73.504, 158.127 82.311, 147.796 92.393 C 140.286 99.721, 132.649 115.652, 130.838 127.767 L 129.752 135.033 131.377 143.915 C 133.497 155.503, 137.667 165.563, 144.555 175.706 C 150.454 184.393, 162.213 196.177, 170.792 202 C 173.628 203.925, 175.960 205.992, 175.974 206.593 C 176.022 208.599, 160.500 238.479, 155.519 245.971 C 149.538 254.968, 133.584 271, 130.612 271 C 130.298 271, 129.111 269.178, 127.975 266.951 C 125.881 262.847, 122.730 260.815, 120 261.808 C 117.505 262.716, 117.031 264.207, 117.015 271.193 L 117 277.887 115.204 279.193 C 112.223 281.362, 109.295 287.213, 108.640 292.306 C 107.788 298.941, 109.569 310.322, 112.329 315.871 L 114.631 320.500 118.371 321.742 L 122.112 322.985 126.306 322.017 C 128.613 321.485, 131.701 321.038, 133.168 321.024 L 135.837 321 138.149 324.750 C 141.386 329.999, 143.970 332.819, 147.605 335.065 L 150.736 337 155.365 337 L 159.994 337 163.754 333.604 L 167.513 330.207 184.584 330.745 L 201.656 331.282 207.078 330.059 C 230.830 324.699, 242.535 317.596, 254.137 301.500 C 260.739 292.342, 264.321 282.693, 265.850 269.950 L 266.757 262.400 265.922 253.950 C 265.056 245.185, 263.377 238.190, 260.592 231.745 C 255.416 219.768, 241.470 204.060, 228.794 195.929 L 221.013 190.937 223.286 187.219 C 224.537 185.173, 226.105 182.600, 226.772 181.500 C 227.439 180.400, 229.398 176.806, 231.126 173.514 C 232.853 170.222, 235.901 164.822, 237.898 161.514 C 239.895 158.206, 242.070 154.600, 242.732 153.500 C 243.393 152.400, 245.811 148.183, 248.104 144.129 C 256.632 129.053, 263.240 124.365, 279.118 122.123 C 282.757 121.609, 287.140 120.462, 288.858 119.574 C 292.770 117.550, 295.590 112.129, 296.495 104.890 L 297.193 99.301 295.621 93.166 C 294.757 89.792, 292.887 84.737, 291.466 81.933 L 288.883 76.836 284.287 74.803 L 279.690 72.769 274.910 72.769 C 272.281 72.769, 267.895 73.305, 265.163 73.961 L 260.196 75.153 257.055 73.528 C 255.327 72.635, 253.452 70.689, 252.887 69.204 C 252.323 67.719, 251.147 65.715, 250.275 64.752 L 248.690 63 245.595 63.039 C 243.893 63.061, 240.925 63.769, 239 64.614 M 240.174 66.833 C 238.523 67.750, 235.446 69.465, 233.336 70.644 C 228.829 73.162, 227.117 75.006, 223.982 80.718 L 221.668 84.936 222.982 93.386 C 223.705 98.033, 224.048 104.247, 223.744 107.193 L 223.191 112.550 215.967 128.525 C 211.994 137.311, 205.620 151.025, 201.802 159 C 197.985 166.975, 194.780 173.885, 194.681 174.356 C 194.581 174.826, 199.179 178.098, 204.898 181.626 L 215.296 188.041 217.025 187.492 C 219.181 186.808, 224.436 178.909, 229.495 168.750 C 231.618 164.488, 233.725 161, 234.177 161 C 234.630 161, 235 160.531, 235 159.958 C 235 158.862, 235.191 158.587, 239.847 153 C 241.451 151.075, 243.994 147.250, 245.498 144.500 C 250.863 134.689, 254.174 130.099, 258.357 126.671 C 262.996 122.869, 271.944 118.770, 280.429 116.561 C 288.124 114.556, 289.537 113.589, 291.903 108.701 L 294 104.369 294 98.773 L 294 93.178 291.887 87.656 C 289.268 80.812, 287.069 78.389, 282.275 77.065 L 278.536 76.033 270.787 77.603 L 263.038 79.173 258.033 77.511 L 253.028 75.849 251.014 73.020 C 249.906 71.464, 249 69.517, 249 68.693 C 249 67.870, 247.690 66.739, 246.089 66.181 L 243.177 65.166 240.174 66.833 M 189.500 75.538 L 185.500 76.921 189 76.355 C 190.925 76.044, 192.928 75.387, 193.450 74.895 C 194.618 73.795, 194.466 73.819, 189.500 75.538 M 195.141 77.022 C 190.260 79.237, 186.830 79.515, 183.879 77.935 C 182.784 77.349, 181.352 77.050, 180.695 77.270 C 180.038 77.490, 180.773 78.338, 182.328 79.154 L 185.156 80.637 191.828 79.750 C 195.498 79.263, 198.650 78.444, 198.833 77.932 C 199.017 77.419, 200.029 77, 201.083 77 C 202.137 77, 203 76.550, 203 76 C 203 74.451, 199.927 74.850, 195.141 77.022 M 173 80 L 171.500 80.969 175 80.969 L 178.500 80.969 177 80 C 176.175 79.467, 175.275 79.031, 175 79.031 C 174.725 79.031, 173.825 79.467, 173 80 M 164.911 83.282 C 164.037 83.952, 163.064 85.625, 162.749 87 C 162.435 88.375, 161.927 90.569, 161.622 91.874 C 160.645 96.053, 154.758 104, 152.639 104 C 152.082 104, 152.795 102.763, 154.223 101.250 C 157.244 98.052, 160.588 91.795, 161.571 87.500 L 162.258 84.500 161.252 85.500 C 160.699 86.050, 159.491 88.827, 158.569 91.671 L 156.892 96.841 152.705 101.671 C 150.401 104.327, 149.301 105.882, 150.259 105.128 C 151.216 104.373, 152 104.160, 152 104.655 C 152 106.461, 147.907 108.991, 143.969 109.621 L 139.931 110.267 141.362 111.883 C 142.150 112.772, 142.971 114.400, 143.189 115.500 L 143.584 117.500 146.270 113.305 C 147.747 110.997, 151.778 106.785, 155.228 103.943 C 162.192 98.207, 165 94.053, 165 89.488 C 165 87.814, 165.701 85.445, 166.557 84.223 C 168.249 81.806, 167.440 81.343, 164.911 83.282 M 189.500 84.100 C 183.423 85.465, 173.172 90.895, 169.233 94.834 C 167.298 96.769, 164.366 101.310, 162.716 104.926 L 159.717 111.500 158.521 119.500 L 157.324 127.500 158.162 129.815 C 158.623 131.088, 159 133.078, 159 134.236 C 159 138.241, 165.058 148.755, 170.768 154.660 C 175.734 159.796, 184.596 167.648, 190.228 171.903 L 191.956 173.208 195.351 165.854 C 197.219 161.809, 200.425 154.900, 202.475 150.500 C 204.525 146.100, 207.318 140.025, 208.681 137 C 210.044 133.975, 213.261 127.225, 215.830 122 L 220.500 112.500 220.289 104 C 220.173 99.325, 219.457 93.504, 218.697 91.064 L 217.317 86.627 209.908 84.830 C 201.926 82.894, 195.837 82.676, 189.500 84.100 M 156 89.440 C 156 90.232, 154.691 93.403, 153.091 96.487 C 151.491 99.571, 150.851 101.538, 151.669 100.860 C 153.284 99.519, 158 90.710, 158 89.033 C 158 88.465, 157.550 88, 157 88 C 156.450 88, 156 88.648, 156 89.440 M 152.304 91.250 C 151.279 92.612, 148.958 100, 149.555 100 C 149.757 100, 150.999 97.750, 152.315 95 C 154.525 90.383, 154.519 88.307, 152.304 91.250 M 147.162 96.543 C 145.767 99.605, 145.735 100, 146.883 100 C 147.676 100, 149.184 94.868, 148.574 94.246 C 148.437 94.106, 147.802 95.140, 147.162 96.543 M 142 104 C 142 104.550, 142.702 105, 143.559 105 C 144.416 105, 144.840 104.550, 144.500 104 C 144.160 103.450, 143.459 103, 142.941 103 C 142.423 103, 142 103.450, 142 104 M 140.330 107.276 C 140.038 107.747, 140.038 108.371, 140.328 108.662 C 141.097 109.431, 146.873 108.015, 147.570 106.886 L 148.164 105.926 144.512 106.172 C 142.503 106.308, 140.621 106.804, 140.330 107.276 M 150.323 110.250 C 148.068 112.755, 146.650 115, 147.322 115 C 147.564 115, 148.964 113.425, 150.432 111.500 C 153.444 107.552, 153.383 106.851, 150.323 110.250 M 138.557 113.418 C 140.652 114.950, 141.601 114.782, 140.541 113.067 C 140.179 112.480, 139.148 112, 138.250 112 L 136.618 112 138.557 113.418 M 153.405 116.146 L 151.500 118.291 153.750 117.110 C 154.988 116.461, 156 115.495, 156 114.965 C 156 113.544, 155.521 113.762, 153.405 116.146 M 137 117.059 C 137 118.191, 137.450 118.840, 138 118.500 C 138.550 118.160, 139 117.234, 139 116.441 C 139 115.648, 138.550 115, 138 115 C 137.450 115, 137 115.927, 137 117.059 M 139.616 118.305 C 138.722 121.639, 138.846 122, 140.883 122 C 141.919 122, 142.984 121.170, 143.249 120.157 L 143.731 118.313 141.968 117.212 L 140.204 116.111 139.616 118.305 M 135.252 121.500 C 135.263 123.700, 135.468 124.482, 135.707 123.238 C 135.946 121.994, 135.937 120.194, 135.687 119.238 C 135.437 118.282, 135.241 119.300, 135.252 121.500 M 154.325 118.658 C 154.687 119.020, 154.432 120.032, 153.759 120.908 L 152.534 122.500 154.767 120.595 C 157.440 118.314, 157.509 118, 155.333 118 C 154.417 118, 153.963 118.296, 154.325 118.658 M 145.252 122.500 C 145.263 124.700, 145.468 125.482, 145.707 124.238 C 145.946 122.994, 145.937 121.194, 145.687 120.238 C 145.437 119.282, 145.241 120.300, 145.252 122.500 M 134.005 127.514 C 135.749 132.101, 138.858 137.637, 140.416 138.930 C 141.275 139.643, 141.718 140.647, 141.400 141.162 L 140.822 142.097 139.161 140.816 L 137.500 139.534 139.250 141.596 C 141.734 144.522, 141.420 145.664, 138.750 143.412 L 136.500 141.514 138.856 144.185 C 141.249 146.897, 143.667 147.061, 143.667 144.513 C 143.667 143.742, 143.337 143.199, 142.933 143.306 C 142.530 143.412, 142.200 143.050, 142.200 142.500 C 142.200 141.122, 143.126 141.485, 148.151 144.827 C 150.543 146.418, 153.775 148.026, 155.334 148.400 L 158.168 149.080 157.525 148.040 C 157.171 147.468, 156.121 146.993, 155.191 146.985 L 153.500 146.969 154.824 146.130 L 156.148 145.291 154.502 143.645 C 152.384 141.527, 151.344 141.505, 153.096 143.615 L 154.436 145.231 152.551 144.865 C 149.861 144.344, 149.405 141.968, 151.871 141.324 L 153.952 140.779 152.860 138.738 L 151.767 136.697 153.384 137.317 C 155.716 138.212, 155.372 137.269, 152.879 135.935 L 150.759 134.800 151.438 135.900 C 152.317 137.321, 150.754 137.300, 147.566 135.848 C 146.176 135.215, 144.764 133.831, 144.428 132.773 C 144.092 131.715, 143.573 131.094, 143.273 131.393 C 142.974 131.693, 143.475 133.077, 144.388 134.469 C 145.300 135.861, 145.608 137, 145.073 137 C 144.537 137, 143.641 136.213, 143.080 135.250 C 142.519 134.287, 142.047 134.030, 142.030 134.679 C 142.014 135.327, 142.740 136.598, 143.645 137.502 L 145.291 139.148 146.145 137.824 L 147 136.500 147.985 138 C 148.526 138.825, 148.963 140.400, 148.954 141.500 L 148.939 143.500 147.920 141.750 C 147.359 140.787, 146.280 140, 145.522 140 C 143.157 140, 141.001 136.995, 140.985 133.679 L 140.969 130.500 140.124 131.834 L 139.278 133.168 138.636 131.494 C 138.283 130.573, 138.215 129.461, 138.486 129.023 C 139.039 128.128, 137.357 126.615, 134.793 125.703 L 133.086 125.096 134.005 127.514 M 143 125.684 C 143 126.318, 142.733 127.661, 142.406 128.668 L 141.811 130.500 142.756 129.183 L 143.701 127.865 144.942 130.861 C 145.625 132.508, 146.794 134.091, 147.541 134.377 L 148.898 134.898 148.262 133.199 L 147.626 131.500 149.563 133 L 151.500 134.500 150.154 132.782 C 149.414 131.837, 148.362 131.162, 147.816 131.282 C 147.271 131.402, 145.964 129.932, 144.912 128.016 C 143.860 126.099, 143 125.050, 143 125.684 M 151.648 126.717 C 151.960 127.937, 152.843 129.454, 153.608 130.090 C 155.628 131.766, 155.273 129.910, 153.018 127 L 151.080 124.500 151.648 126.717 M 150 130 C 150.589 131.100, 151.574 132, 152.190 132 C 152.806 132, 152.495 131.100, 151.500 130 C 150.505 128.900, 149.519 128, 149.310 128 C 149.101 128, 149.411 128.900, 150 130 M 133.970 137.944 C 134.543 139.014, 135.505 140.194, 136.109 140.567 C 136.713 140.941, 136.434 140.066, 135.489 138.623 C 133.487 135.568, 132.451 135.105, 133.970 137.944 M 135.703 144.404 C 136.691 145.727, 138.400 147.356, 139.500 148.025 C 140.600 148.694, 139.949 147.612, 138.054 145.621 C 134.077 141.442, 133.120 140.947, 135.703 144.404 M 134 150 C 134 150.550, 134.455 151, 135.011 151 C 135.567 151, 138.021 151.940, 140.464 153.088 C 142.907 154.236, 145.339 154.908, 145.869 154.581 C 147.391 153.640, 153.903 161.965, 154.615 165.762 L 155.260 169.198 155.991 168.014 L 156.723 166.831 157.268 168.915 L 157.813 171 159.656 170.884 L 161.500 170.768 159.750 170.311 C 158.787 170.059, 158 169.185, 158 168.368 C 158 167.551, 158.450 167.160, 159 167.500 C 159.550 167.840, 160 167.390, 160 166.500 C 160 163.215, 147.453 151.881, 145.726 153.607 C 145.436 153.897, 142.919 152.979, 140.133 151.567 C 134.470 148.698, 134 148.578, 134 150 M 146.468 151.568 C 149.201 152.922, 152.913 155.462, 154.718 157.212 C 156.523 158.961, 158 159.938, 158 159.383 C 158 157.534, 152.560 153.154, 147.667 151.064 C 141.089 148.255, 140.383 148.551, 146.468 151.568 M 152.441 151.445 C 153.509 152.300, 154.821 153, 155.358 153 C 156.628 153, 156.061 152.538, 153 151.080 L 150.500 149.890 152.441 151.445 M 156 150.312 C 156 150.484, 157.350 151.622, 159 152.842 C 162.503 155.432, 162.964 154.976, 159.811 152.039 C 157.889 150.248, 156 149.392, 156 150.312 M 141.230 157.669 L 139.959 158.180 142.415 160.112 C 143.765 161.174, 145.447 161.921, 146.152 161.772 C 146.857 161.622, 148.193 162.990, 149.120 164.811 L 150.807 168.122 151.524 166.961 C 152.533 165.328, 148.694 160.522, 146.279 160.393 C 143.606 160.251, 141.832 159.081, 142.543 157.931 C 143.167 156.920, 143.116 156.910, 141.230 157.669 M 164.986 162.050 C 164.979 165.048, 164.705 168.498, 164.378 169.717 C 163.642 172.462, 160.762 173.478, 157.962 171.980 L 155.849 170.849 156.959 172.924 C 157.909 174.698, 160.403 175.568, 163.250 175.118 C 163.662 175.053, 164 175.430, 164 175.955 C 164 178.665, 152.075 178.283, 148.970 175.473 C 147.886 174.492, 147 174.198, 147 174.819 C 147 176.554, 152.492 179, 156.385 179 C 158.302 179, 160.912 179.385, 162.185 179.855 C 163.458 180.325, 166.474 181.015, 168.886 181.388 L 173.272 182.067 172.741 178.105 L 172.210 174.143 173.605 174.679 C 174.372 174.973, 175 175.616, 175 176.107 C 175 178.115, 176.801 176.819, 177.246 174.491 L 177.726 171.983 176.449 173.043 L 175.171 174.103 173.337 171.671 L 171.502 169.239 170.264 171.870 L 169.025 174.500 169.619 171.125 L 170.214 167.750 169.013 168.492 L 167.812 169.234 168.183 173.117 C 168.543 176.902, 167.468 178.656, 166.823 175.334 C 166.269 172.477, 167.160 164.981, 167.994 165.496 C 169.137 166.202, 167.362 158.962, 166.078 157.678 L 165 156.600 164.986 162.050 M 147.141 165.363 C 147.847 166.938, 148.606 167.682, 148.828 167.015 C 149.050 166.349, 148.473 165.060, 147.545 164.152 L 145.858 162.500 147.141 165.363 M 144.967 165.852 C 145.634 167.146, 145.945 169.103, 145.658 170.201 C 145.370 171.299, 145.401 171.932, 145.726 171.608 C 146.050 171.283, 146.964 171.555, 147.757 172.213 L 149.198 173.409 147.547 169.454 C 146.639 167.280, 145.414 165.050, 144.825 164.500 L 143.755 163.500 144.967 165.852 M 152.596 167.799 L 151.834 170.098 153.440 172.549 C 155.297 175.384, 156.554 175.815, 155.483 173.250 C 155.081 172.287, 154.439 170.150, 154.055 168.500 L 153.357 165.500 152.596 167.799 M 173.015 168.191 C 173.007 169.121, 173.450 170.160, 174 170.500 C 175.266 171.282, 175.266 169.958, 174 168 L 173.031 166.500 173.015 168.191 M 150 171.878 C 150 172.360, 150.749 173.373, 151.664 174.128 L 153.327 175.500 152.129 173.250 C 150.889 170.923, 150 170.350, 150 171.878 M 180.015 172.821 C 180.007 173.548, 179.325 174.818, 178.500 175.643 C 177.675 176.468, 177.010 177.673, 177.022 178.321 C 177.034 178.970, 177.891 178.398, 178.927 177.051 L 180.809 174.602 181.268 177.051 L 181.728 179.500 181.849 177 C 181.915 175.625, 181.533 173.825, 181 173 L 180.031 171.500 180.015 172.821 M 184.170 174.500 C 184.154 175.600, 184.527 177.400, 185 178.500 L 185.859 180.500 185.830 179 C 185.814 178.175, 185.440 176.375, 185 175 L 184.199 172.500 184.170 174.500 M 190.534 181.569 L 188.849 185.121 190.674 187.664 C 191.679 189.063, 193.625 192.296, 195 194.849 L 197.500 199.490 201 201.141 C 202.925 202.049, 204.512 203.402, 204.526 204.146 C 204.541 204.891, 204.905 206.063, 205.335 206.750 C 206.530 208.658, 204.902 208.239, 203.392 206.250 L 202.064 204.500 202.032 206.875 L 202 209.250 205 208.650 C 208.525 207.945, 208.975 209.224, 205.750 210.780 L 203.500 211.865 205.317 211.932 C 207.607 212.018, 214 216.826, 214 218.464 C 214 219.138, 214.869 220.476, 215.930 221.437 L 217.861 223.184 217.286 220.842 C 216.970 219.554, 216.330 218.009, 215.864 217.408 C 215.398 216.807, 215.265 216.069, 215.567 215.767 C 216.625 214.709, 219.939 216.233, 220.513 218.042 L 221.093 219.867 223.046 219.491 L 225 219.115 225 220.866 C 225 221.830, 225.661 223.491, 226.468 224.559 L 227.936 226.500 228.047 223.500 C 228.163 220.365, 228.428 220.695, 229.421 225.208 C 229.749 226.697, 231.138 229.125, 232.508 230.604 L 235 233.292 235 236.705 L 235 240.118 236.107 239.434 L 237.214 238.750 236.565 240.795 C 235.348 244.628, 234.616 250.861, 234.899 254.973 L 235 256.445 236.573 254.199 L 238.146 251.954 237.823 243.602 L 237.500 235.249 238.693 235.710 L 239.886 236.170 238.838 232.335 C 237.486 227.382, 236.551 226.458, 237.489 231 L 238.211 234.500 237.188 233.500 C 236.626 232.950, 235.934 230.981, 235.650 229.125 C 235.048 225.180, 231.224 220.838, 225.250 217.316 C 222.912 215.937, 221.248 214.408, 221.552 213.916 C 221.855 213.425, 221.426 213.283, 220.597 213.601 C 218.973 214.224, 211 210.200, 211 208.757 C 211 208.276, 211.520 208.203, 212.155 208.595 L 213.309 209.309 212.585 208.138 C 212.187 207.494, 211.534 207.170, 211.133 207.418 C 210.140 208.032, 209.123 207.206, 204.716 202.210 C 202.635 199.850, 201.180 197.518, 201.482 197.029 C 201.785 196.539, 201.506 195.813, 200.862 195.415 L 199.691 194.691 200.500 196 L 201.309 197.309 200.086 196.553 C 199.414 196.138, 199.100 195.183, 199.388 194.431 C 199.677 193.679, 199.413 192.755, 198.802 192.378 L 197.691 191.691 198.537 193.095 L 199.384 194.500 197.709 193.142 C 195.861 191.643, 194.014 185.991, 194.006 181.809 C 193.997 177.717, 192.414 177.607, 190.534 181.569 M 157.815 181.215 C 158.322 181.722, 161.242 182.477, 164.304 182.892 C 167.365 183.308, 170.596 184.250, 171.483 184.986 L 173.095 186.323 171.797 187.146 L 170.500 187.969 171.750 187.985 C 172.438 187.993, 173.266 187.970, 173.591 187.933 C 173.916 187.897, 174.838 188.684, 175.639 189.683 L 177.097 191.500 175.475 188.157 C 174.582 186.318, 174.094 184.573, 174.389 184.278 C 174.684 183.983, 175.456 184.906, 176.104 186.330 L 177.284 188.918 178.892 188.066 L 180.500 187.213 181.896 188.720 L 183.291 190.227 181.146 189.546 L 179 188.865 179 189.933 C 179 190.520, 179.338 190.947, 179.750 190.882 C 180.162 190.816, 181.603 190.816, 182.950 190.882 L 185.400 191 184.200 192.200 C 182.589 193.811, 182.675 195.339, 184.341 194.700 C 185.078 194.417, 186.316 194.587, 187.091 195.077 L 188.500 195.969 186.809 195.985 C 185.879 195.993, 184.871 196.399, 184.570 196.887 C 184.268 197.375, 184.804 197.712, 185.761 197.637 C 186.717 197.562, 187.388 198.063, 187.250 198.750 C 187.113 199.438, 187.675 200, 188.500 200 C 189.325 200, 190 200.433, 190 200.962 C 190 201.491, 191.985 203.966, 194.411 206.462 L 198.822 211 201.161 210.932 L 203.500 210.865 201.500 210.016 C 200.400 209.549, 198.713 208.919, 197.750 208.615 C 196.787 208.311, 196 207.164, 196 206.065 C 196 204.967, 195.228 202.449, 194.285 200.471 L 192.570 196.875 191.855 198.688 L 191.141 200.500 191.070 198.118 C 191.032 196.808, 190.007 194.129, 188.793 192.164 L 186.585 188.593 186.691 185.046 L 186.797 181.500 186.331 184.267 C 185.755 187.678, 184.006 186.876, 183.985 183.191 L 183.969 180.500 183.214 181.687 C 182.799 182.341, 181.168 183.366, 179.590 183.966 L 176.720 185.057 174.688 183.278 C 173.571 182.300, 173.015 182.111, 173.453 182.857 L 174.250 184.214 171.875 183.449 C 167.213 181.947, 156.910 180.310, 157.815 181.215 M 153 181.500 C 153 182.367, 156.756 185.799, 159.045 187.024 L 161.241 188.200 160.465 186.944 L 159.689 185.688 165.595 186.284 L 171.500 186.880 169.559 185.440 C 168.491 184.648, 166.410 184, 164.935 184 C 163.459 184, 160.338 183.325, 158 182.500 C 153.293 180.839, 153 180.781, 153 181.500 M 164 188.015 L 161.500 188.638 166.291 189.201 C 168.925 189.510, 172.075 190.601, 173.291 191.625 L 175.500 193.486 173.171 190.844 C 170.602 187.931, 167.801 187.067, 164 188.015 M 161.559 191.095 C 161.866 191.593, 163.588 192, 165.385 192 L 168.651 192 170.698 194.250 C 171.824 195.488, 172.992 197.175, 173.294 198 L 173.842 199.500 173.921 197.896 C 173.964 197.014, 172.962 195.172, 171.694 193.804 L 169.388 191.315 165.194 190.753 L 161 190.190 161.559 191.095 M 191 192.500 C 192.292 193.875, 193.516 195, 193.721 195 C 194.552 195, 190.431 190.060, 189.576 190.031 C 189.067 190.014, 189.708 191.125, 191 192.500 M 209.587 195.182 C 210.639 196.657, 212.625 198.378, 214 199.008 C 215.375 199.638, 216.050 199.778, 215.500 199.319 C 214.950 198.860, 212.964 197.138, 211.087 195.492 L 207.675 192.500 209.587 195.182 M 217.441 196.247 C 217.674 198.036, 217.949 199.725, 218.051 200 C 218.153 200.275, 218.172 200.871, 218.094 201.324 C 218.015 201.778, 218.419 201.859, 218.992 201.505 C 219.564 201.151, 219.774 200.443, 219.457 199.931 C 218.379 198.186, 220.839 198.994, 223.673 201.315 C 225.228 202.589, 228.075 204.582, 230 205.745 C 234.221 208.296, 238.203 212.436, 240.341 216.500 L 241.920 219.500 241.960 217.700 C 241.982 216.711, 241.343 214.630, 240.540 213.077 C 239.737 211.524, 239.399 209.899, 239.790 209.466 C 240.180 209.034, 239.938 209.003, 239.250 209.399 C 238.563 209.794, 238 209.619, 238 209.010 C 238 208.401, 236.261 207.124, 234.136 206.172 C 229.448 204.074, 221.074 197.886, 221.031 196.491 C 221.014 195.935, 220.104 194.921, 219.008 194.237 L 217.016 192.993 217.441 196.247 M 194.035 196.615 C 193.975 198.522, 198.058 203.002, 199.823 202.965 L 201.500 202.929 199.110 201.604 C 197.796 200.876, 196.124 199.204, 195.396 197.890 C 194.667 196.575, 194.055 196.002, 194.035 196.615 M 208.918 200.363 C 210.249 202.003, 214 204.483, 214 203.723 C 214 203.532, 212.537 202.305, 210.750 200.997 L 207.500 198.618 208.918 200.363 M 184.589 201.856 C 184.298 202.326, 185.172 202.499, 186.530 202.239 C 187.889 201.979, 189 201.594, 189 201.383 C 189 200.610, 185.101 201.027, 184.589 201.856 M 198 206.031 C 198 207.114, 198.477 208, 199.059 208 C 199.641 208, 199.864 207.588, 199.553 207.085 C 199.242 206.582, 199.530 205.990, 200.193 205.769 L 201.399 205.367 199.699 204.715 L 198 204.063 198 206.031 M 219 204.463 C 219 204.736, 220.820 205.888, 223.045 207.023 C 228.476 209.794, 235.215 215.998, 234.582 217.646 C 234.302 218.378, 234.525 218.869, 235.080 218.738 C 236.473 218.409, 240.034 228.599, 240.290 233.646 C 240.405 235.926, 240.838 237.586, 241.250 237.337 C 242.625 236.503, 242.022 244.057, 240.474 247.050 C 239.635 248.672, 239.201 250, 239.510 250 C 241.323 250, 245.471 246.117, 246.636 243.328 L 248 240.064 248.006 231.782 L 248.012 223.500 249.438 220.767 C 250.222 219.264, 250.494 217.805, 250.041 217.526 C 248.459 216.548, 245.999 221.971, 245.872 226.715 L 245.743 231.500 244.758 225.750 C 244.216 222.588, 243.315 220, 242.755 220 L 241.737 220 242.394 224.250 C 242.755 226.588, 243.262 232.100, 243.520 236.500 L 243.988 244.500 242.166 235 C 239.965 223.530, 237.441 217.755, 232.407 212.669 C 229.072 209.300, 219 203.135, 219 204.463 M 217.437 205.898 C 217.743 206.393, 219.597 207.745, 221.557 208.901 C 223.517 210.057, 224.870 210.598, 224.563 210.102 C 224.257 209.607, 222.403 208.255, 220.443 207.099 C 218.483 205.943, 217.130 205.402, 217.437 205.898 M 227.976 206.683 C 229.338 207.682, 232.014 209.850, 233.922 211.500 C 235.831 213.150, 236.994 213.825, 236.507 213 C 235.504 211.299, 233.025 209.328, 228.565 206.683 L 225.500 204.866 227.976 206.683 M 174.557 215.250 C 172.461 219.787, 169.383 225.750, 167.715 228.500 C 166.048 231.250, 163.336 235.975, 161.688 239 C 157.172 247.293, 149.595 258.002, 143.404 264.843 C 138.539 270.219, 122.624 282, 120.227 282 C 118.910 282, 115.469 286.045, 113.422 290 L 111.609 293.500 111.603 302.500 L 111.596 311.500 112.758 313.609 L 113.919 315.717 118.710 317.085 C 121.344 317.837, 124.063 318.406, 124.750 318.351 C 125.438 318.295, 127.983 318.194, 130.406 318.125 L 134.813 318 134.467 316.250 C 134.276 315.288, 133.850 313.223, 133.519 311.661 C 133.188 310.100, 131.248 307.289, 129.209 305.416 C 125.074 301.618, 126.118 300.747, 130.615 304.241 C 135.242 307.836, 136.684 310.073, 139.163 317.499 L 141.500 324.498 145.280 328.279 L 149.061 332.061 154.280 331.389 L 159.500 330.718 163.542 327.030 L 167.584 323.342 172.195 322.181 L 176.805 321.020 179.486 317.835 L 182.166 314.649 181.551 312.075 C 177.747 296.138, 179.550 271.357, 185.631 256.023 C 189.355 246.633, 197.233 229.657, 200.441 224.111 L 201.823 221.722 194.661 216.596 C 186.955 211.081, 180.349 207, 179.126 207 C 178.709 207, 176.653 210.713, 174.557 215.250 M 216.425 208.879 C 216.724 209.363, 217.988 210.016, 219.234 210.330 L 221.500 210.901 219.559 209.450 C 217.409 207.844, 215.580 207.511, 216.425 208.879 M 193.500 211.682 C 194.050 212.148, 195.662 213.544, 197.083 214.783 L 199.667 217.035 199.667 215.623 C 199.667 214.847, 198.054 213.452, 196.083 212.523 C 194.113 211.594, 192.950 211.216, 193.500 211.682 M 203.083 213.365 C 203.313 213.565, 204.625 214.314, 206 215.028 L 208.500 216.327 207.128 214.664 C 206.373 213.749, 205.060 213, 204.211 213 C 203.362 213, 202.854 213.164, 203.083 213.365 M 202.424 215.916 C 204.369 218.066, 206 218.633, 206 217.161 C 206 216.699, 204.771 215.761, 203.269 215.077 L 200.539 213.833 202.424 215.916 M 229 216.313 C 229 216.485, 230.463 217.948, 232.250 219.563 L 235.500 222.500 232.563 219.250 C 229.825 216.221, 229 215.540, 229 216.313 M 202.226 218.574 C 203.176 219.568, 204.227 220.107, 204.562 219.771 C 204.897 219.436, 204.120 218.623, 202.836 217.964 L 200.500 216.766 202.226 218.574 M 222.636 223.507 C 222.299 224.385, 222.421 224.858, 222.907 224.558 C 223.393 224.257, 224.073 224.748, 224.419 225.649 C 224.764 226.549, 225.307 227.026, 225.626 226.708 C 225.944 226.390, 225.539 225.180, 224.726 224.020 L 223.249 221.910 222.636 223.507 M 219.136 225.054 L 219 227.608 222.750 231.054 L 226.500 234.500 223.333 231 C 221.591 229.075, 219.965 226.375, 219.719 225 L 219.272 222.500 219.136 225.054 M 199.579 232.303 C 193.115 244.162, 187.657 256.330, 184.913 265 L 182.539 272.500 182.520 286 C 182.509 293.425, 183.126 303.270, 183.892 307.877 L 185.284 316.254 195.010 315.785 L 204.736 315.317 212.887 311.492 L 221.038 307.667 225.332 303.076 C 227.694 300.552, 231.104 295.358, 232.910 291.535 L 236.194 284.584 236.166 277.341 C 236.132 268.735, 235.114 261.189, 233.885 260.429 C 233.398 260.128, 233 258.720, 233 257.301 C 233 253.036, 228.860 245.961, 222.500 239.357 C 216.061 232.672, 206.102 224, 204.862 224 C 204.446 224, 202.068 227.736, 199.579 232.303 M 254.070 227.083 C 254.109 228.412, 254.521 230.400, 254.986 231.500 L 255.832 233.500 255.551 229.719 C 255.240 225.531, 253.959 223.251, 254.070 227.083 M 227 227.755 C 227 228.305, 227.675 229.315, 228.500 230 L 230 231.245 230 230.245 C 230 229.695, 229.325 228.685, 228.500 228 L 227 226.755 227 227.755 M 252.673 232.500 C 252.991 235.800, 253.419 238.688, 253.625 238.917 C 254.353 239.726, 253.789 231.466, 252.948 229 L 252.096 226.500 252.673 232.500 M 221.648 233.717 C 221.960 234.937, 222.843 236.454, 223.608 237.090 C 225.628 238.766, 225.273 236.910, 223.018 234 L 221.080 231.500 221.648 233.717 M 227.168 239.051 C 227.753 240.729, 228.417 241.917, 228.644 241.690 C 229.139 241.195, 227.252 236, 226.577 236 C 226.317 236, 226.583 237.373, 227.168 239.051 M 253.299 242.384 L 251.202 248.077 252.601 246.916 C 254.594 245.262, 254.319 246.996, 252.040 250.454 L 250.093 253.407 251.133 254.660 C 251.704 255.349, 251.885 256.377, 251.534 256.945 L 250.896 257.977 252.489 257.366 L 254.082 256.755 253.791 258.127 C 253.631 258.882, 253.050 259.831, 252.500 260.235 L 251.500 260.969 253.050 260.985 C 253.903 260.993, 255.110 260.490, 255.733 259.867 C 256.356 259.244, 257.558 259, 258.405 259.325 L 259.944 259.916 259.722 267.362 C 259.600 271.457, 259.163 274.600, 258.750 274.345 C 258.038 273.906, 257.589 275.517, 257.913 277.344 C 257.995 277.808, 257.486 277.998, 256.781 277.766 C 256.077 277.534, 255.235 275.804, 254.910 273.922 C 254.047 268.908, 252.960 266.199, 251.604 265.678 C 250.492 265.252, 243.425 267.242, 242.394 268.272 C 241.332 269.335, 241.137 273.407, 242.078 274.892 L 243.095 276.500 242.441 274.125 L 241.786 271.750 243.063 272.539 L 244.340 273.328 243.681 271.612 L 243.023 269.896 244.011 270.507 C 244.555 270.843, 245 270.641, 245 270.059 C 245 268.250, 248.596 268.896, 250.551 271.057 L 252.412 273.113 252.813 279.400 L 253.213 285.687 251.488 289.094 C 248.866 294.273, 244.980 299.106, 243.950 298.469 C 243.444 298.156, 241.110 299.711, 238.765 301.925 C 233.460 306.931, 234.525 307.328, 239.997 302.384 C 242.199 300.395, 244 299.039, 244 299.370 C 244 300.733, 236.201 307.091, 232.162 309.020 L 227.825 311.093 224.917 310.634 C 223.318 310.382, 221.738 310.614, 221.407 311.150 C 221.076 311.686, 218.486 313.217, 215.653 314.552 C 212.819 315.888, 211.625 316.710, 213 316.379 C 214.375 316.048, 216.850 315.160, 218.500 314.405 C 220.150 313.650, 224.717 312.913, 228.648 312.766 C 232.580 312.620, 235.389 312.246, 234.891 311.937 C 234.393 311.627, 235.001 310.502, 236.243 309.437 L 238.500 307.500 243 307.813 L 247.500 308.126 246.250 306.863 C 245.563 306.168, 245 304.518, 245 303.197 L 245 300.793 251.363 293.147 C 254.863 288.941, 258.045 284.481, 258.435 283.235 C 258.825 281.990, 259.468 281.171, 259.864 281.416 C 260.260 281.661, 260.712 276.554, 260.867 270.066 L 261.150 258.271 259.511 257.643 C 258.610 257.297, 258.158 256.554, 258.506 255.991 C 258.854 255.428, 259.627 255.269, 260.224 255.638 L 261.309 256.309 260.595 255.155 C 260.203 254.520, 258.896 253.955, 257.691 253.900 L 255.500 253.801 258 253.088 L 260.500 252.376 257.595 251.630 L 254.690 250.884 253.860 252.192 C 252.664 254.078, 252.808 252.228, 254.035 249.934 L 255.070 248 257.668 248 C 259.097 248, 261.106 248.969, 262.133 250.153 L 264 252.306 263.900 249.903 C 263.845 248.581, 263.488 246.376, 263.106 245.003 L 262.411 242.506 260.456 242.491 C 259.380 242.483, 257.743 243.375, 256.818 244.473 C 254.568 247.146, 253.738 246.049, 255.086 242.183 C 257.096 236.417, 255.428 236.604, 253.299 242.384 M 249.825 241.326 L 249.248 244.152 250.218 243.182 C 250.751 242.649, 251.011 241.377, 250.794 240.356 L 250.401 238.500 249.825 241.326 M 243.702 251.368 C 239.139 256.331, 238.031 258.019, 238.031 260 L 238.031 261.500 238.877 260.165 C 239.343 259.430, 240.112 258.901, 240.587 258.990 C 241.062 259.078, 241.608 258.554, 241.801 257.825 L 242.152 256.500 241.091 258 C 240.508 258.825, 240.024 259.132, 240.015 258.683 C 239.990 257.319, 245.163 251, 246.306 251 C 246.893 251, 246.081 252.350, 244.500 254 C 242.919 255.650, 241.983 257, 242.419 257 C 243.768 257, 247.516 251.630, 247.182 250.175 L 246.866 248.799 247.922 249.452 L 248.977 250.104 248.382 248.552 C 248.054 247.698, 247.722 247.053, 247.643 247.118 C 247.564 247.183, 245.791 249.095, 243.702 251.368 M 240.844 251.255 C 238.046 253.621, 235.996 256.980, 236.006 259.184 C 236.010 259.908, 236.713 259.150, 237.569 257.500 C 238.426 255.850, 240.307 253.262, 241.750 251.750 C 244.922 248.426, 244.478 248.183, 240.844 251.255 M 245.105 256.534 C 240.885 261.339, 238.607 264.940, 239.329 265.663 C 239.660 265.993, 239.475 267.216, 238.919 268.381 C 237.527 271.301, 246.050 261.883, 248.394 257.912 L 250.288 254.704 248.974 255.516 L 247.660 256.328 248.299 254.664 C 249.244 252.202, 248.553 252.606, 245.105 256.534 M 243.620 260.418 C 240.202 264.590, 239.047 266.707, 240.771 265.641 C 241.792 265.010, 248.251 256, 247.683 256 C 247.440 256, 245.612 257.988, 243.620 260.418 M 262.232 272 C 262.232 273.925, 262.438 274.712, 262.689 273.750 C 262.941 272.788, 262.941 271.212, 262.689 270.250 C 262.438 269.288, 262.232 270.075, 262.232 272 M 246.597 272.652 C 247.505 276.432, 247.997 276.870, 248.015 273.917 L 248.031 271.500 249 273 C 249.533 273.825, 250.007 275.850, 250.052 277.500 L 250.135 280.500 251.236 278.214 L 252.337 275.929 250.358 273.277 C 249.269 271.819, 247.824 270.441, 247.146 270.215 L 245.913 269.804 246.597 272.652 M 256.195 273.500 C 256.215 275.150, 256.439 275.704, 256.693 274.731 C 256.947 273.758, 256.930 272.408, 256.656 271.731 C 256.382 271.054, 256.175 271.850, 256.195 273.500 M 238.954 273 C 238.499 274.318, 238.190 282, 238.592 282 C 238.843 282, 239.476 280.879, 239.996 279.510 L 240.943 277.020 240.035 274.760 C 239.535 273.517, 239.049 272.725, 238.954 273 M 244.314 274.750 C 243.972 275.712, 243.529 276.806, 243.329 277.181 C 243.130 277.555, 243.374 278.113, 243.872 278.421 C 244.369 278.728, 244.973 277.634, 245.215 275.990 C 245.703 272.665, 245.269 272.068, 244.314 274.750 M 244.696 282.100 C 243.710 284.375, 243.124 286.457, 243.393 286.726 C 244.004 287.338, 247.150 279.951, 246.768 278.803 C 246.614 278.341, 245.681 279.825, 244.696 282.100 M 241.946 282.750 C 241.393 284.262, 240.702 286.175, 240.411 287 L 239.882 288.500 240.958 287.433 C 242.101 286.299, 244.175 280, 243.405 280 C 243.155 280, 242.498 281.238, 241.946 282.750 M 249.009 283 L 248.859 285.500 248.175 283.773 L 247.490 282.046 244.628 287.512 C 241.961 292.605, 238.641 296.194, 231.435 301.772 L 228.500 304.043 231.687 302.529 C 233.439 301.696, 235.153 300.561, 235.496 300.007 C 235.838 299.453, 236.568 299, 237.118 299 C 237.668 299, 237.797 299.520, 237.405 300.155 L 236.691 301.309 237.862 300.585 C 238.506 300.187, 238.793 299.474, 238.500 299 C 238.207 298.526, 238.470 297.828, 239.084 297.448 C 239.697 297.069, 241.898 294.131, 243.974 290.920 C 246.049 287.708, 248.019 285.352, 248.350 285.683 C 249.204 286.537, 250.293 283.327, 249.673 281.783 C 249.390 281.077, 249.091 281.625, 249.009 283 M 239.667 282.750 C 238.322 284.984, 236.046 291.350, 236.896 290.500 C 238.069 289.327, 241.238 282, 240.572 282 C 240.323 282, 239.915 282.337, 239.667 282.750 M 248.906 288.748 C 248.331 290.260, 247.105 292.397, 246.180 293.498 L 244.500 295.500 246.686 293.653 C 247.888 292.637, 249.327 290.500, 249.884 288.903 C 251.171 285.211, 250.303 285.074, 248.906 288.748 M 241.490 289.016 C 241.144 289.575, 240.373 289.731, 239.776 289.362 L 238.691 288.691 239.382 289.809 L 240.073 290.927 235.815 295.185 L 231.557 299.443 234.923 297.471 C 237.725 295.830, 244.050 288, 242.574 288 C 242.323 288, 241.835 288.457, 241.490 289.016 M 256.141 290.637 L 254.858 293.500 256.545 291.848 C 257.473 290.940, 258.050 289.651, 257.828 288.985 C 257.606 288.318, 256.847 289.062, 256.141 290.637 M 247.413 300.492 L 245.780 302.985 246.580 304.742 L 247.381 306.500 247.779 303.500 C 247.998 301.850, 248.642 299.938, 249.211 299.250 C 249.780 298.563, 249.975 298, 249.645 298 C 249.316 298, 248.311 299.122, 247.413 300.492 M 229.762 314.707 C 231.006 314.946, 232.806 314.937, 233.762 314.687 C 234.718 314.437, 233.700 314.241, 231.500 314.252 C 229.300 314.263, 228.518 314.468, 229.762 314.707 M 228.786 315.948 C 224.543 316.304, 220.823 316.844, 220.518 317.148 C 219.581 318.085, 235.438 316.828, 236.450 315.885 C 236.972 315.398, 237.197 315.068, 236.950 315.151 C 236.703 315.234, 233.029 315.593, 228.786 315.948 M 198 319.906 L 195.500 320.613 197.750 321.213 C 200.304 321.894, 200.817 324, 198.429 324 L 196.857 324 198.424 325.567 L 199.991 327.134 202.745 326.717 L 205.500 326.300 202.750 326.150 C 199.778 325.988, 198.864 324.010, 201.750 323.985 L 203.500 323.969 202 322.909 L 200.500 321.848 201.756 321.338 C 202.447 321.058, 202.758 320.418, 202.447 319.915 C 201.819 318.898, 201.569 318.897, 198 319.906 M 194.269 326.693 C 195.242 326.947, 196.592 326.930, 197.269 326.656 C 197.946 326.382, 197.150 326.175, 195.500 326.195 C 193.850 326.215, 193.296 326.439, 194.269 326.693" stroke="none" fill="#fbfbfb" fill-rule="evenodd"/></svg>